<?xml version="1.0" encoding="UTF-8"?>
<svg version="1.1" xmlns="http://www.w3.org/2000/svg" width="142" height="126">
<path d="M0 0 C0.495 0.495 0.495 0.495 1 1 C2.89409978 1.22354607 4.7904348 1.42819951 6.6875 1.625 C16.68916879 3.11039636 26.76209723 7.43049765 33.60546875 15.10546875 C40.61932807 24.63410117 42.67593581 34.24958831 41 46 C38.36706513 55.77774062 32.1228476 63.22214114 24 69 C22.21420532 69.77851318 22.21420532 69.77851318 20.39233398 70.57275391 C18.21008626 71.81869735 17.20227952 72.43565721 16.34573364 74.8253479 C16.09162297 77.14206645 16.0566729 79.37279245 16.09765625 81.703125 C16.08536484 82.54091492 16.07307343 83.37870483 16.06040955 84.24188232 C16.02866963 86.91214515 16.04495721 89.57965067 16.0625 92.25 C16.04939156 94.06252568 16.03315198 95.8750316 16.01367188 97.6875 C15.97280879 102.12558866 15.97500593 106.56181328 16 111 C12.72108075 112.63945963 9.09386466 112.12030178 5.4921875 112.09765625 C4.65156769 112.0962413 3.81094788 112.09482635 2.94485474 112.09336853 C0.25486725 112.08776237 -2.43503759 112.07520886 -5.125 112.0625 C-6.94661338 112.05748579 -8.76822807 112.05292275 -10.58984375 112.04882812 C-15.05992777 112.03779094 -19.52994986 112.0205222 -24 112 C-25 109 -25 109 -24.13891602 106.87792969 C-23.68186279 106.06743164 -23.22480957 105.25693359 -22.75390625 104.421875 C-22.24939941 103.5148584 -21.74489258 102.6078418 -21.22509766 101.67333984 C-20.40211182 100.22628662 -20.40211182 100.22628662 -19.5625 98.75 C-18.45697794 96.75784208 -17.35150942 94.76565445 -16.24609375 92.7734375 C-14.2942491 89.29114969 -12.32616753 85.81874087 -10.34765625 82.3515625 C-9.60661317 81.0261298 -8.86571566 79.7006157 -8.125 78.375 C-7.77381104 77.77913086 -7.42262207 77.18326172 -7.06079102 76.56933594 C-5.99695044 74.74170851 -5.99695044 74.74170851 -5 72 C-5.94428652 68.92582278 -7.64130054 67.14427224 -10 65 C-14.07130493 66.25414589 -14.07130493 66.25414589 -17.875 68.125 C-22.43336938 70.00197563 -26.71613941 69.478301 -31.1875 67.8125 C-35.29307604 65.16668433 -38.43135169 62.70594492 -40 58 C-40.14554833 55.8783532 -40.22080412 53.75143294 -40.25 51.625 C-40.27578125 50.50351562 -40.3015625 49.38203125 -40.328125 48.2265625 C-39.8959837 43.97717308 -38.39893107 41.53958447 -35.5625 38.41796875 C-31.08904739 34.89512482 -27.29557115 34.31862112 -21.65234375 34.55859375 C-17.74228086 35.20931114 -15.30167922 36.84380132 -12 39 C-10.68 39 -9.36 39 -8 39 C-6.23537317 35.91190305 -6 34.76687864 -6 31 C-7.58074564 30.18247697 -9.16471223 29.37118003 -10.75 28.5625 C-11.63171875 28.11003906 -12.5134375 27.65757813 -13.421875 27.19140625 C-19.98975241 24.15625078 -26.81002816 24.1124074 -33.6875 26.25 C-41.88703631 29.30696998 -46.9580556 34.30105829 -51 42 C-55.1456263 55.56750424 -48.11446678 69.26639324 -42.23608398 81.25244141 C-40 85.81883859 -40 85.81883859 -40 88 C-39.34 88 -38.68 88 -38 88 C-37.31164063 89.39412109 -37.31164063 89.39412109 -36.609375 90.81640625 C-35.98991926 92.06527085 -35.37010472 93.31395752 -34.75 94.5625 C-34.43224609 95.20421143 -34.11449219 95.84592285 -33.78710938 96.50708008 C-32.13716788 99.81494394 -30.43735279 103.03589088 -28.5 106.1875 C-28.005 107.115625 -27.51 108.04375 -27 109 C-27.495 110.485 -27.495 110.485 -28 112 C-33.67830078 112.02464705 -39.35657069 112.04283462 -45.03491211 112.05493164 C-46.96818585 112.05997256 -48.90145576 112.06680519 -50.8347168 112.07543945 C-53.60726872 112.08751565 -56.37977041 112.09323057 -59.15234375 112.09765625 C-60.45702858 112.10539818 -60.45702858 112.10539818 -61.78807068 112.11329651 C-63.85905814 112.11349185 -65.92994324 112.06208168 -68 112 C-69 111 -69 111 -69.04663086 107.4934082 C-69.02061118 105.92917805 -68.99324735 104.36496993 -68.96484375 102.80078125 C-68.95881092 101.09961696 -68.95564829 99.39844052 -68.95507812 97.69726562 C-68.95336192 95.00748479 -68.93773051 92.32211903 -68.87329102 89.63305664 C-68.18266793 79.41760757 -68.18266793 79.41760757 -72.14794922 70.58203125 C-74.71895297 69.06772755 -77.22267564 68.06921834 -80 67 C-87.86374317 60.88338904 -93.52738604 51.94014422 -95 42 C-95.99996044 32.39382268 -93.49792081 24.12280735 -87.9375 16.25 C-81.50579868 8.58143304 -72.74641356 3.9362658 -63 2 C-61.62619658 1.88108884 -60.25109584 1.77602079 -58.875 1.6875 C-54.36577443 0.88747611 -52.52317675 -0.68534726 -49.0625 -3.50390625 C-35.02291654 -13.68792228 -13.00049482 -9.66703461 0 0 Z " fill="#F3813C" transform="translate(97,11)"/>
<path d="M0 0 C0.33 0 0.66 0 1 0 C1.042721 1.66611905 1.04063832 3.33382885 1 5 C0.67 5.33 0.34 5.66 0 6 C0.12375 7.36125 0.12375 7.36125 0.25 8.75 C-0.08723713 13.13408266 -1.8869113 13.95609105 -5 17 C-6.45613362 19.58151113 -7.72952735 22.20620408 -8.984375 24.890625 C-10 27 -10 27 -11 28 C-11.07148199 29.35243917 -11.08399454 30.70834367 -11.0625 32.0625 C-11.041875 33.361875 -11.02125 34.66125 -11 36 C-11.99 36 -12.98 36 -14 36 C-14.33 36.99 -14.66 37.98 -15 39 C-12.83125748 38.49396008 -11.00032373 38.00016187 -9 37 C-9 37.99 -9 38.98 -9 40 C-7.49759766 39.98259766 -7.49759766 39.98259766 -5.96484375 39.96484375 C-4.62239772 39.95545602 -3.27994964 39.94635688 -1.9375 39.9375 C-0.62652344 39.92589844 0.68445313 39.91429687 2.03515625 39.90234375 C5.8163519 39.99547665 9.27920707 40.38551274 13 41 C13.144375 40.21625 13.28875 39.4325 13.4375 38.625 C14 36 14 36 15 34 C15.99 34 16.98 34 18 34 C17.95399658 33.13197754 17.90799316 32.26395508 17.8605957 31.36962891 C17.69743702 28.15344156 17.5480218 24.93699597 17.40795898 21.71972656 C17.34447087 20.32656029 17.27548564 18.93363335 17.20092773 17.54101562 C17.09480564 15.54107702 17.00998096 13.54004394 16.92578125 11.5390625 C16.86817627 10.33459473 16.81057129 9.13012695 16.7512207 7.88916016 C16.83331787 6.9357373 16.91541504 5.98231445 17 5 C17.99 4.34 18.98 3.68 20 3 C20 15.54 20 28.08 20 41 C16.72108075 42.63945963 13.09386466 42.12030178 9.4921875 42.09765625 C8.23125778 42.09553383 8.23125778 42.09553383 6.94485474 42.09336853 C4.25486725 42.08776237 1.56496241 42.07520886 -1.125 42.0625 C-2.94661338 42.05748579 -4.76822807 42.05292275 -6.58984375 42.04882812 C-11.05992777 42.03779094 -15.52994986 42.0205222 -20 42 C-21 39 -21 39 -20.15478516 36.90966797 C-19.70409668 36.11189941 -19.2534082 35.31413086 -18.7890625 34.4921875 C-18.28987305 33.59516113 -17.79068359 32.69813477 -17.27636719 31.77392578 C-16.73141602 30.81728027 -16.18646484 29.86063477 -15.625 28.875 C-14.51729198 26.891148 -13.41053234 24.90676619 -12.3046875 22.921875 C-11.7487793 21.92994141 -11.19287109 20.93800781 -10.62011719 19.91601562 C-8.26898187 15.68425549 -6.00242738 11.40990203 -3.75 7.125 C-3.3679541 6.40038574 -2.9859082 5.67577148 -2.59228516 4.92919922 C-1.72684389 3.2868415 -0.86318729 1.64354348 0 0 Z " fill="#DB775A" transform="translate(93,81)"/>
<path d="M0 0 C4.875 0.875 4.875 0.875 6 2 C6.14770615 4.65261967 6.23499235 7.28255807 6.28125 9.9375 C6.29965942 10.732771 6.31806885 11.52804199 6.33703613 12.34741211 C6.41598124 15.76434429 6.48354351 19.18148185 6.55224609 22.59863281 C6.6038636 25.08669119 6.66115795 27.57457394 6.71875 30.0625 C6.73232544 30.84165771 6.74590088 31.62081543 6.7598877 32.42358398 C6.51587629 36.01033755 6.51587629 36.01033755 8 39 C10.21534624 39.22955099 12.43732247 39.39564785 14.66015625 39.53515625 C15.32462265 39.57813339 15.98908905 39.62111053 16.6736908 39.66539001 C18.80304314 39.80210844 20.93273582 39.93237038 23.0625 40.0625 C24.50328215 40.15387298 25.94403784 40.24566439 27.38476562 40.33789062 C30.9228824 40.5634558 34.46133221 40.78323096 38 41 C38 39.68 38 38.36 38 37 C37.01 36.505 37.01 36.505 36 36 C36.03255208 33.94921875 36.06510417 31.8984375 36.09765625 29.84765625 C36.20561184 27.98267859 36.20561184 27.98267859 35 27 C34.85884839 24.32941149 34.95752893 21.67567762 35 19 C38.38076567 22.95313006 40.87571202 27.06326163 43.3125 31.625 C43.68439453 32.29273438 44.05628906 32.96046875 44.43945312 33.6484375 C45.37502513 35.39065724 46.19627099 37.19316733 47 39 C46.67 39.99 46.34 40.98 46 42 C40.32169922 42.02464705 34.64342931 42.04283462 28.96508789 42.05493164 C27.03181415 42.05997256 25.09854424 42.06680519 23.1652832 42.07543945 C20.39273128 42.08751565 17.62022959 42.09323057 14.84765625 42.09765625 C13.54297142 42.10539818 13.54297142 42.10539818 12.21192932 42.11329651 C10.14094186 42.11349185 8.07005676 42.06208168 6 42 C3.93787669 39.93787669 4.83872225 35.53950666 4.82421875 32.6953125 C4.80102098 30.98045647 4.77690366 29.26561267 4.75195312 27.55078125 C4.71680816 24.83601704 4.68748371 22.12170246 4.67407227 19.40673828 C4.65862515 16.79403703 4.61843649 14.18266424 4.57421875 11.5703125 C4.57612717 10.7577298 4.57803558 9.94514709 4.58000183 9.10794067 C4.53207814 4.54699557 4.53207814 4.54699557 1.96411133 0.96435547 C1.31595459 0.64611816 0.66779785 0.32788086 0 0 Z " fill="#EC6E51" transform="translate(23,81)"/>
<path d="M0 0 C5.404052 3.55123417 8.56020908 8.74482175 10.61328125 14.8125 C12.61934328 26.15992161 11.24108313 35.19258365 5 45 C3.90341064 41.71023192 4.20046862 40.28696233 5 37 C5.66 37 6.32 37 7 37 C8.86783046 31.51324804 9.2358396 26.77807024 9 21 C8.35804688 20.731875 7.71609375 20.46375 7.0546875 20.1875 C5 19 5 19 4.125 16 C4.08375 15.01 4.0425 14.02 4 13 C4.66 12.34 5.32 11.68 6 11 C5.566875 10.37351562 5.13375 9.74703125 4.6875 9.1015625 C4.130625 8.28429688 3.57375 7.46703125 3 6.625 C2.443125 5.81289063 1.88625 5.00078125 1.3125 4.1640625 C0 2 0 2 0 0 Z " fill="#E98D47" transform="translate(127,24)"/>
<path d="M0 0 C2.32034265 0.84118328 4.59378391 1.42250814 7 2 C7 2.33 7 2.66 7 3 C5.741875 3.04125 4.48375 3.0825 3.1875 3.125 C2.47980469 3.14820313 1.77210937 3.17140625 1.04296875 3.1953125 C-1 3 -1 3 -4 1 C-4.66 1.33 -5.32 1.66 -6 2 C-6.495 -0.475 -6.495 -0.475 -7 -3 C-8.051875 -2.938125 -9.10375 -2.87625 -10.1875 -2.8125 C-14 -3 -14 -3 -16.23828125 -4.4921875 C-19.83622182 -6.45655109 -23.01163313 -6.40448263 -27 -6.3125 C-27.69867188 -6.31572266 -28.39734375 -6.31894531 -29.1171875 -6.32226562 C-33.22256491 -6.27966265 -36.25947198 -5.61476346 -40 -4 C-42.3125 -4.875 -42.3125 -4.875 -44 -6 C-28.64062722 -11.90745107 -13.35960876 -8.90640584 0 0 Z " fill="#ECA339" transform="translate(97,11)"/>
<path d="M0 0 C4.875 0.875 4.875 0.875 6 2 C6.14770615 4.65261967 6.23499235 7.28255807 6.28125 9.9375 C6.29965942 10.732771 6.31806885 11.52804199 6.33703613 12.34741211 C6.41598124 15.76434429 6.48354351 19.18148185 6.55224609 22.59863281 C6.6038636 25.08669119 6.66115795 27.57457394 6.71875 30.0625 C6.73232544 30.84165771 6.74590088 31.62081543 6.7598877 32.42358398 C6.51587629 36.01033755 6.51587629 36.01033755 8 39 C16.14519317 40.19449725 24.47257068 40.28113521 32.6875 40.5625 C34.47317383 40.62727539 34.47317383 40.62727539 36.29492188 40.69335938 C39.19653034 40.79823679 42.09820635 40.90040196 45 41 C45.33 39.68 45.66 38.36 46 37 C46.5625 38.9375 46.5625 38.9375 47 41 C45.10376798 42.89623202 42.33629641 42.12897626 39.8137207 42.13894653 C38.51374146 42.13591019 38.51374146 42.13591019 37.1875 42.1328125 C35.86141724 42.13424759 35.86141724 42.13424759 34.50854492 42.13571167 C32.63557871 42.13639351 30.76261014 42.13453893 28.88964844 42.13037109 C26.01231612 42.12502289 23.13513992 42.13031593 20.2578125 42.13671875 C18.44270799 42.13605797 16.62760357 42.13477681 14.8125 42.1328125 C13.94584717 42.13483673 13.07919434 42.13686096 12.1862793 42.13894653 C6.11495009 42.11495009 6.11495009 42.11495009 5 41 C4.88925925 38.22519129 4.83837323 35.47106335 4.82421875 32.6953125 C4.80102098 30.98045647 4.77690366 29.26561267 4.75195312 27.55078125 C4.71680816 24.83601704 4.68748371 22.12170246 4.67407227 19.40673828 C4.65862515 16.79403703 4.61843649 14.18266424 4.57421875 11.5703125 C4.57612717 10.7577298 4.57803558 9.94514709 4.58000183 9.10794067 C4.53207814 4.54699557 4.53207814 4.54699557 1.96411133 0.96435547 C1.31595459 0.64611816 0.66779785 0.32788086 0 0 Z " fill="#D77660" transform="translate(23,81)"/>
<path d="M0 0 C2.09266533 2.09266533 2.76491457 3.50625106 3.875 6.2109375 C4.22046875 7.04367188 4.5659375 7.87640625 4.921875 8.734375 C5.45554687 10.04148437 5.45554687 10.04148437 6 11.375 C6.70715054 13.09163355 7.41544477 14.80779651 8.125 16.5234375 C8.43695313 17.28575684 8.74890625 18.04807617 9.0703125 18.83349609 C9.97081477 21.01666723 9.97081477 21.01666723 11.1171875 23.09228516 C12 25 12 25 12 28 C11.34 28 10.68 28 10 28 C9.01649975 25.91870896 8.03835542 23.83488641 7.0625 21.75 C6.51722656 20.58984375 5.97195312 19.4296875 5.41015625 18.234375 C4 15 4 15 3.43359375 12.703125 C3.09081411 10.7502855 3.09081411 10.7502855 1 9 C0.5859375 6.8359375 0.5859375 6.8359375 0.375 4.375 C0.30023438 3.55773437 0.22546875 2.74046875 0.1484375 1.8984375 C0.09945312 1.27195312 0.05046875 0.64546875 0 0 Z " fill="#DD7E59" transform="translate(45,72)"/>
<path d="M0 0 C0.33 0 0.66 0 1 0 C1.33 10.56 1.66 21.12 2 32 C2.99 32.33 3.98 32.66 5 33 C5.33 33.99 5.66 34.98 6 36 C4.125 36.625 4.125 36.625 2 37 C0 35 0 35 -0.22705078 31.56005859 C-0.22673369 30.08948021 -0.21540987 28.61887858 -0.1953125 27.1484375 C-0.1924826 26.37440582 -0.18965271 25.60037415 -0.18673706 24.80288696 C-0.17552754 22.32676843 -0.15042203 19.8510095 -0.125 17.375 C-0.11497118 15.69792188 -0.10584516 14.02083811 -0.09765625 12.34375 C-0.07558574 8.22902777 -0.04105102 4.11457489 0 0 Z " fill="#F37754" transform="translate(29,84)"/>
<path d="M0 0 C3.25 1.3125 3.25 1.3125 6.1875 3.3125 C9.61495672 5.55083908 12.30400054 6.36546013 16.25 7.3125 C16.25 7.6425 16.25 7.9725 16.25 8.3125 C14.991875 8.35375 13.73375 8.395 12.4375 8.4375 C11.72980469 8.46070313 11.02210937 8.48390625 10.29296875 8.5078125 C8.25 8.3125 8.25 8.3125 5.25 6.3125 C4.26 6.8075 4.26 6.8075 3.25 7.3125 C2.92 5.6625 2.59 4.0125 2.25 2.3125 C-0.06 2.3125 -2.37 2.3125 -4.75 2.3125 C-4.75 1.6525 -4.75 0.9925 -4.75 0.3125 C-2.75 -0.6875 -2.75 -0.6875 0 0 Z " fill="#E99645" transform="translate(87.75,5.6875)"/>
<path d="M0 0 C0.33 0 0.66 0 1 0 C1.74772557 10.91125458 1.06987744 18.46162117 -5 28 C-6.09658936 24.71023192 -5.79953138 23.28696233 -5 20 C-4.34 20 -3.68 20 -3 20 C-0.71415102 13.44723293 -0.39405632 6.89598561 0 0 Z " fill="#E08E5B" transform="translate(137,41)"/>
<path d="M0 0 C0 0.66 0 1.32 0 2 C-0.7425 2.2475 -1.485 2.495 -2.25 2.75 C-5.08467877 3.80265523 -5.08467877 3.80265523 -6.75 6.0625 C-9.76048726 8.65486403 -12.19825843 8.60219156 -16.07421875 8.82421875 C-18.00682747 8.79352634 -18.00682747 8.79352634 -19 10 C-21.33297433 10.04092937 -23.66705225 10.04241723 -26 10 C-23.33076502 7.33076502 -21.59589901 7.61259341 -17.875 7.25 C-12.15249551 6.4777151 -8.83091554 5.1164251 -4.5859375 1.2421875 C-3 0 -3 0 0 0 Z " fill="#E0934C" transform="translate(53,6)"/>
<path d="M0 0 C6.4 -0.36923077 6.4 -0.36923077 9.4375 1.5 C9.953125 1.995 10.46875 2.49 11 3 C7.91111478 5.05925681 7.29064073 5.2390374 3.8125 5.125 C1.9253125 5.063125 1.9253125 5.063125 0 5 C0 3.35 0 1.7 0 0 Z " fill="#F58F30" transform="translate(106,16)"/>
<path d="M0 0 C0 0.66 0 1.32 0 2 C0.99 2.66 1.98 3.32 3 4 C2.67 4.66 2.34 5.32 2 6 C-2.29 5.34 -6.58 4.68 -11 4 C-7.54424257 0.54424257 -4.86390948 -0.27021719 0 0 Z " fill="#F58935" transform="translate(81,30)"/>
<path d="M0 0 C1.65 0.33 3.3 0.66 5 1 C4.67 2.32 4.34 3.64 4 5 C2.576875 5.2165625 2.576875 5.2165625 1.125 5.4375 C-1.8934494 5.82935399 -1.8934494 5.82935399 -4 7 C-4.66 6.67 -5.32 6.34 -6 6 C-5.34 4.68 -4.68 3.36 -4 2 C-2.68 2 -1.36 2 0 2 C0 1.34 0 0.68 0 0 Z " fill="#F39333" transform="translate(53,6)"/>
<path d="M0 0 C1.32 0.66 2.64 1.32 4 2 C3.67 3.98 3.34 5.96 3 8 C3.66 8 4.32 8 5 8 C5 8.66 5 9.32 5 10 C4.360625 10.28875 3.72125 10.5775 3.0625 10.875 C0.84793921 11.82823451 0.84793921 11.82823451 0 14 C-1 13 -1 13 -1.125 10.5 C-1 8 -1 8 0 7 C0.04092937 4.66702567 0.04241723 2.33294775 0 0 Z " fill="#F07640" transform="translate(93,79)"/>
<path d="M0 0 C0.33 0 0.66 0 1 0 C1.33 2.64 1.66 5.28 2 8 C1.01 8 0.02 8 -1 8 C-1.33 8.99 -1.66 9.98 -2 11 C-1.34 11.33 -0.68 11.66 0 12 C-1.98 12 -3.96 12 -6 12 C-5.39816251 9.97954558 -4.72693904 7.97888961 -4 6 C-3.34 5.67 -2.68 5.34 -2 5 C-1.27840576 3.35636866 -0.60648579 1.68949614 0 0 Z " fill="#EF6D4D" transform="translate(80,109)"/>
<path d="M0 0 C0.99 0 1.98 0 3 0 C3 0.66 3 1.32 3 2 C4.4540625 2.4640625 4.4540625 2.4640625 5.9375 2.9375 C9 4 9 4 10 5 C12.32817964 5.36760731 14.6618385 5.70241581 17 6 C17 6.66 17 7.32 17 8 C11.7481833 8.315109 8.45185123 7.8689708 4 5 C1.625 2.3125 1.625 2.3125 0 0 Z " fill="#DA7E58" transform="translate(59,72)"/>
<path d="M0 0 C0.90105469 0.01804688 1.80210938 0.03609375 2.73046875 0.0546875 C3.41753906 0.07789063 4.10460937 0.10109375 4.8125 0.125 C4.4825 0.785 4.1525 1.445 3.8125 2.125 C1.1725 1.795 -1.4675 1.465 -4.1875 1.125 C-4.5175 2.445 -4.8475 3.765 -5.1875 5.125 C-4.1975 5.455 -3.2075 5.785 -2.1875 6.125 C-3.5075 6.455 -4.8275 6.785 -6.1875 7.125 C-6.1875 6.135 -6.1875 5.145 -6.1875 4.125 C-7.1775 4.125 -8.1675 4.125 -9.1875 4.125 C-9.1875 4.785 -9.1875 5.445 -9.1875 6.125 C-10.5075 6.455 -11.8275 6.785 -13.1875 7.125 C-6.09583333 -0.15833333 -6.09583333 -0.15833333 0 0 Z " fill="#D9874C" transform="translate(72.1875,45.875)"/>
<path d="M0 0 C1.32 0.33 2.64 0.66 4 1 C2.21190303 2.17213045 0.41940875 3.33755526 -1.375 4.5 C-2.37273437 5.1496875 -3.37046875 5.799375 -4.3984375 6.46875 C-7 8 -7 8 -9 8 C-9 6.68 -9 5.36 -9 4 C-5.62902617 2.50178941 -3.79557881 2 0 2 C0 1.34 0 0.68 0 0 Z " fill="#E07C4D" transform="translate(121,76)"/>
<path d="M0 0 C0.66 0.33 1.32 0.66 2 1 C1.67 2.65 1.34 4.3 1 6 C3.475 6.99 3.475 6.99 6 8 C5.67 8.66 5.34 9.32 5 10 C-0.29158974 8.59928507 -2.77478044 5.14512755 -6 1 C-4.7934375 1.0309375 -4.7934375 1.0309375 -3.5625 1.0625 C-1.06645115 1.29633621 -1.06645115 1.29633621 0 0 Z " fill="#E17E4F" transform="translate(18,71)"/>
<path d="M0 0 C1.98 0.99 3.96 1.98 6 3 C4.625 4.5 4.625 4.5 3 6 C2.34 6 1.68 6 1 6 C1 5.34 1 4.68 1 4 C-2.3 3.34 -5.6 2.68 -9 2 C-9 1.67 -9 1.34 -9 1 C-7.700625 1.020625 -6.40125 1.04125 -5.0625 1.0625 C-3.70834367 1.08399454 -2.35243917 1.07148199 -1 1 C-0.67 0.67 -0.34 0.34 0 0 Z " fill="#E78942" transform="translate(77,46)"/>
<path d="M0 0 C0.33 0.66 0.66 1.32 1 2 C-0.23723976 5.71171927 -2.2553349 7.2553349 -5 10 C-6.29519995 12.16620544 -6.29519995 12.16620544 -7 14 C-7.66 14 -8.32 14 -9 14 C-7.64002446 7.95566426 -4.14348206 4.36505864 0 0 Z " fill="#DC8F51" transform="translate(14,22)"/>
<path d="M0 0 C1.08784335 3.31395986 1.07262544 3.83580335 -0.4375 7.25 C-0.953125 8.1575 -1.46875 9.065 -2 10 C-2.66 10 -3.32 10 -4 10 C-4.433125 11.4540625 -4.433125 11.4540625 -4.875 12.9375 C-6 16 -6 16 -8 17 C-6.3341708 10.83643195 -3.12194714 5.51740344 0 0 Z " fill="#DB8062" transform="translate(80,105)"/>
<path d="M0 0 C0.66 0 1.32 0 2 0 C2 1.65 2 3.3 2 5 C2.66 5.33 3.32 5.66 4 6 C4.6328125 8.06640625 4.6328125 8.06640625 5.125 10.5625 C5.29257813 11.38878906 5.46015625 12.21507813 5.6328125 13.06640625 C5.75398437 13.70449219 5.87515625 14.34257813 6 15 C2.16353713 11.45368978 0.14818147 7.32150973 -0.1875 2.0625 C-0.125625 1.381875 -0.06375 0.70125 0 0 Z " fill="#DC8852" transform="translate(3,53)"/>
<path d="M0 0 C1.32 0 2.64 0 4 0 C4 0.66 4 1.32 4 2 C5.65 2.33 7.3 2.66 9 3 C9.20086443 6.71599191 9.1519437 7.77208445 7 11 C6.01 11 5.02 11 4 11 C4.66 9.02 5.32 7.04 6 5 C5.01 4.360625 4.02 3.72125 3 3.0625 C2.01 2.381875 1.02 1.70125 0 1 C0 0.67 0 0.34 0 0 Z " fill="#D6894D" transform="translate(86,38)"/>
<path d="M0 0 C1.65 0.99 3.3 1.98 5 3 C4.67 4.98 4.34 6.96 4 9 C2.68 8.67 1.36 8.34 0 8 C0 5.36 0 2.72 0 0 Z " fill="#EC8F3D" transform="translate(122,20)"/>
<path d="M0 0 C0.99 0 1.98 0 3 0 C3 2.31 3 4.62 3 7 C1.35 7 -0.3 7 -2 7 C-1.125 2.25 -1.125 2.25 0 0 Z " fill="#F0694F" transform="translate(108,115)"/>
<path d="M0 0 C0.75 1.625 0.75 1.625 1 4 C-0.875 7.25 -0.875 7.25 -3 10 C-3.33 10 -3.66 10 -4 10 C-4.25 7.25 -4.25 7.25 -4 4 C-2 1.625 -2 1.625 0 0 Z " fill="#EC7354" transform="translate(85,99)"/>
<path d="M0 0 C-0.33 1.32 -0.66 2.64 -1 4 C-2.32 4.33 -3.64 4.66 -5 5 C-5 5.66 -5 6.32 -5 7 C-5.66 7 -6.32 7 -7 7 C-7 5.68 -7 4.36 -7 3 C-6.34 3 -5.68 3 -5 3 C-5 2.34 -5 1.68 -5 1 C-3 0 -3 0 0 0 Z " fill="#EF7844" transform="translate(113,78)"/>
<path d="M0 0 C0.66 0 1.32 0 2 0 C2.99 1.98 3.98 3.96 5 6 C3.35 6.33 1.7 6.66 0 7 C0 6.34 0 5.68 0 5 C-0.66 5 -1.32 5 -2 5 C-2 4.01 -2 3.02 -2 2 C-1.34 2 -0.68 2 0 2 C0 1.34 0 0.68 0 0 Z " fill="#F17742" transform="translate(44,78)"/>
<path d="M0 0 C0.66 0 1.32 0 2 0 C4.04169485 2.90548882 5 4.40142046 5 8 C2.525 7.01 2.525 7.01 0 6 C0 4.02 0 2.04 0 0 Z " fill="#F27045" transform="translate(50,92)"/>
<path d="M0 0 C1.2065625 0.0309375 1.2065625 0.0309375 2.4375 0.0625 C2.4375 1.0525 2.4375 2.0425 2.4375 3.0625 C3.4275 3.3925 4.4175 3.7225 5.4375 4.0625 C5.7675 4.7225 6.0975 5.3825 6.4375 6.0625 C5.4475 6.3925 4.4575 6.7225 3.4375 7.0625 C3.025 6.44375 2.6125 5.825 2.1875 5.1875 C0.38176121 2.99481719 -0.9715534 2.13461583 -3.5625 1.0625 C-2.5625 0.0625 -2.5625 0.0625 0 0 Z " fill="#F17843" transform="translate(26.5625,78.9375)"/>
<path d="M0 0 C0.33 0.99 0.66 1.98 1 3 C-0.98 3 -2.96 3 -5 3 C-5.33 3.99 -5.66 4.98 -6 6 C-7.32 5.67 -8.64 5.34 -10 5 C-8.71186658 4.16121545 -7.41936744 3.32913217 -6.125 2.5 C-5.40570312 2.0359375 -4.68640625 1.571875 -3.9453125 1.09375 C-2 0 -2 0 0 0 Z " fill="#E38F4A" transform="translate(26,16)"/>
<path d="M0 0 C0.66 0 1.32 0 2 0 C2 1.32 2 2.64 2 4 C-1.465 5.485 -1.465 5.485 -5 7 C-4.67 6.01 -4.34 5.02 -4 4 C-3.34 4 -2.68 4 -2 4 C-1.34 2.68 -0.68 1.36 0 0 Z " fill="#EA6E3F" transform="translate(81,73)"/>
<path d="M0 0 C1.98 0 3.96 0 6 0 C5.625 1.9375 5.625 1.9375 5 4 C4.01 4.495 4.01 4.495 3 5 C3 4.34 3 3.68 3 3 C2.01 3.33 1.02 3.66 0 4 C0 2.68 0 1.36 0 0 Z " fill="#F6932E" transform="translate(84,8)"/>
<path d="M0 0 C0 0.33 0 0.66 0 1 C-1.57701982 1.55978184 -3.16199242 2.09719401 -4.75 2.625 C-5.63171875 2.92664063 -6.5134375 3.22828125 -7.421875 3.5390625 C-10.41017471 4.07333427 -11.49923002 3.62433191 -14 2 C-9.07262981 0.02905192 -5.21979128 -0.1799928 0 0 Z " fill="#E79748" transform="translate(67,3)"/>
<path d="M0 0 C2.64 0.33 5.28 0.66 8 1 C7.01 2.485 7.01 2.485 6 4 C3.03 3.505 3.03 3.505 0 3 C0 2.01 0 1.02 0 0 Z " fill="#F69430" transform="translate(26,15)"/>
<path d="M0 0 C1.9375 0.3125 1.9375 0.3125 4 1 C4.33 1.99 4.66 2.98 5 4 C3.68 4.33 2.36 4.66 1 5 C0.67 3.35 0.34 1.7 0 0 Z " fill="#F76650" transform="translate(30,116)"/>
<path d="M0 0 C0.99 0 1.98 0 3 0 C1.63016497 3.16115776 1.0109362 3.9927092 -2 6 C-2.33 4.68 -2.66 3.36 -3 2 C-2.01 2 -1.02 2 0 2 C0 1.34 0 0.68 0 0 Z " fill="#E28152" transform="translate(127,70)"/>
<path d="M0 0 C4.42857143 5.14285714 4.42857143 5.14285714 5 9 C4.34 9 3.68 9 3 9 C0.56839395 5.63316085 0 4.26649636 0 0 Z " fill="#E07B60" transform="translate(58,100)"/>
<path d="M0 0 C0.99 0.33 1.98 0.66 3 1 C3 2.32 3 3.64 3 5 C1.68 5.33 0.36 5.66 -1 6 C-0.67 4.02 -0.34 2.04 0 0 Z " fill="#F18E3A" transform="translate(15,22)"/>
<path d="" fill="#FFFFFF" transform="translate(0,0)"/>
<path d="" fill="#FFFFFF" transform="translate(0,0)"/>
<path d="" fill="#FFFFFF" transform="translate(0,0)"/>
<path d="" fill="#FFFFFF" transform="translate(0,0)"/>
<path d="" fill="#FFFFFF" transform="translate(0,0)"/>
<path d="" fill="#FFFFFF" transform="translate(0,0)"/>
<path d="" fill="#FFFFFF" transform="translate(0,0)"/>
<path d="" fill="#FFFFFF" transform="translate(0,0)"/>
<path d="" fill="#FFFFFF" transform="translate(0,0)"/>
</svg>
